{"title":"Jack.The.Giant.Slayer.2013.CAM.NEWSOURCE.XViD-FANTA","uid":8351232,"size":1235915372,"categoryP":"video","categoryS":"movies","magnet":"?xt=urn:btih:a2455445a3a86ec4ead4ddf3af439f8a17993fbe&amp;dn=Jack.The.Giant.Slayer.2013.CAM.NEWSOURCE.XViD-FANTA&amp;tr=udp%3A%2F%2Ftracker.openbittorrent.com%3A80&amp;tr=udp%3A%2F%2Fopen.demonii.com%3A1337&amp;tr=udp%3A%2F%2Ftracker.coppersurfer.tk%3A6969&amp;tr=udp%3A%2F%2Fexodus.desync.com%3A6969","seeders":1,"leechers":0,"uploader":"xxxlavalxxx","files":5,"time":1365351117,"description":" &lt;a href=&quot;http://www.imdb.com/title/tt1351685/&quot; rel=&quot;nofollow&quot; target=&quot;_NEW&quot;&gt;http://www.imdb.com/title/tt1351685/&lt;/a&gt;\n\n\n\nPlot: The ancient war between humans and a race of giants is reignited when Jack, a young farmhand fighting for a kingdom and the love of a princess, opens a gateway between the two worlds. \n\n\n\nDirector:\n Bryan Singer \n\nWriters:\n Darren Lemke (screenplay), Christopher McQuarrie (screenplay)\n\nStars:\n Nicholas Hoult, Stanley Tucci, Ewan McGregor \n\nGenres:\n  Adventure |  Fantasy \n\nCountry:\n USA \n\nLanguage:\n English \n\n\n\nFormat                                   : AVI\nFormat/Info                              : Audio Video Interleave\nFormat profile                           : OpenDML\nFormat settings                          : rec\nFile size                                : 1.10 GiB\nDuration                                 : 1h 43mn\nOverall bit rate                         : 1 522 Kbps\nWriting application                      : AVI-Mux GUI 1.17.8.3, Feb 16 201019:42:50\n\nVideo\nID                                       : 0\nFormat                                   : MPEG-4 Visual\nFormat profile                           : Advanced Simple@L5\nFormat settings, BVOP                    : 1\nFormat settings, QPel                    : No\nFormat settings, GMC                     : No warppoints\nFormat settings, Matrix                  : Default (H.263)\nMuxing mode                              : Packed bitstream\nCodec ID                                 : XVID\nCodec ID/Hint                            : XviD\nDuration                                 : 1h 43mn\nBit rate                                 : 1 323 Kbps\nWidth                                    : 720 pixels\nHeight                                   : 304 pixels\nDisplay aspect ratio                     : 2.35:1\nFrame rate                               : 29.970 fps\nColor space                              : YUV\nChroma subsampling                       : 4:2:0\nBit depth                                : 8 bits\nScan type                                : Progressive\nCompression mode                         : Lossy\nBits/(Pixel*Frame)                       : 0.202\nStream size                              : 982 MiB (87%)\nWriting library                          : XviD 64\n\nAudio\nID                                       : 1\nFormat                                   : AC-3\nFormat/Info                              : Audio Coding 3\nMode extension                           : CM (complete main)\nFormat settings, Endianness              : Big\nCodec ID                                 : 2000\nDuration                                 : 1h 43mn\nBit rate mode                            : Constant\nBit rate                                 : 192 Kbps\nChannel(s)                               : 2 channels\nChannel positions                        : Front: L R\nSampling rate                            : 48.0 KHz\nBit depth                                : 16 bits\nCompression mode                         : Lossy\nStream size                              : 142 MiB (13%)\nAlignment                                : Aligned on interleaves\nInterleave, duration                     : 64 ms (1.92 video frames)\nInterleave, preload duration             : 192 ms\nTitle                                    : audio-jak\n\n\n\n &lt;a href=&quot;\nhttp://www.shotpix.com/images/27790406089277136453.png&quot; rel=&quot;nofollow&quot; target=&quot;_NEW&quot;&gt;\nhttp://www.shotpix.com/images/27790406089277136453.png&lt;/a&gt; &lt;a href=&quot;\nhttp://www.shotpix.com/images/95205016763114350206.png&quot; rel=&quot;nofollow&quot; target=&quot;_NEW&quot;&gt;\nhttp://www.shotpix.com/images/95205016763114350206.png&lt;/a&gt; &lt;a href=&quot;\nhttp://www.shotpix.com/images/08766290823299440987.png&quot; rel=&quot;nofollow&quot; target=&quot;_NEW&quot;&gt;\nhttp://www.shotpix.com/images/08766290823299440987.png&lt;/a&gt;\n\n","torrent":{"xt":"urn:btih:a2455445a3a86ec4ead4ddf3af439f8a17993fbe","amp;dn":"Jack.The.Giant.Slayer.2013.CAM.NEWSOURCE.XViD-FANTA","amp;tr":["udp%3A%2F%2Ftracker.openbittorrent.com%3A80","udp%3A%2F%2Fopen.demonii.com%3A1337","udp%3A%2F%2Ftracker.coppersurfer.tk%3A6969","udp%3A%2F%2Fexodus.desync.com%3A6969"],"infoHash":"a2455445a3a86ec4ead4ddf3af439f8a17993fbe","infoHashBuffer":{"type":"Buffer","data":[162,69,84,69,163,168,110,196,234,212,221,243,175,67,159,138,23,153,63,190]},"announce":[],"urlList":[]}}